<?xml version="1.0" encoding="UTF-8"?>
<svg xmlns="http://www.w3.org/2000/svg" width="787" height="139" viewBox="0 0 787 139" role="img" aria-label="Kyosue's GitHub contribution graph">
  <style>
    .label { fill: #8B949E; font: 10px -apple-system, BlinkMacSystemFont, "Segoe UI", Helvetica, Arial, sans-serif; }
  </style>
  <rect width="100%" height="100%" fill="#0D1117" rx="6"/>
  <text x="36" y="30" class="label">Sep</text><text x="50" y="30" class="label">Oct</text><text x="106" y="30" class="label">Nov</text><text x="176" y="30" class="label">Dec</text><text x="232" y="30" class="label">Jan</text><text x="288" y="30" class="label">Feb</text><text x="344" y="30" class="label">Mar</text><text x="414" y="30" class="label">Apr</text><text x="470" y="30" class="label">May</text><text x="540" y="30" class="label">Jun</text><text x="596" y="30" class="label">Jul</text><text x="652" y="30" class="label">Aug</text><text x="722" y="30" class="label">Sep</text>
  <text x="0" y="59" class="label">Mon</text><text x="0" y="87" class="label">Wed</text><text x="0" y="115" class="label">Fri</text>
  <rect x="36" y="36" width="11" height="11" rx="2" ry="2" fill="#161B22"><title>2025-09-28: 0 contributions</title></rect><rect x="36" y="50" width="11" height="11" rx="2" ry="2" fill="#161B22"><title>2025-09-29: 0 contributions</title></rect><rect x="36" y="64" width="11" height="11" rx="2" ry="2" fill="#161B22"><title>2025-09-30: 0 contributions</title></rect><rect x="36" y="78" width="11" height="11" rx="2" ry="2" fill="#161B22"><title>2025-10-01: 0 contributions</title></rect><rect x="36" y="92" width="11" height="11" rx="2" ry="2" fill="#161B22"><title>2025-10-02: 0 contributions</title></rect><rect x="36" y="106" width="11" height="11" rx="2" ry="2" fill="#161B22"><title>2025-10-03: 0 contributions</title></rect><rect x="36" y="120" width="11" height="11" rx="2" ry="2" fill="#161B22"><title>2025-10-04: 0 contributions</title></rect><rect x="50" y="36" width="11" height="11" rx="2" ry="2" fill="#161B22"><title>2025-10-05: 0 contributions</title></rect><rect x="50" y="50" width="11" height="11" rx="2" ry="2" fill="#161B22"><title>2025-10-06: 0 contributions</title></rect><rect x="50" y="64" width="11" height="11" rx="2" ry="2" fill="#161B22"><title>2025-10-07: 0 contributions</title></rect><rect x="50" y="78" width="11" height="11" rx="2" ry="2" fill="#161B22"><title>2025-10-08: 0 contributions</title></rect><rect x="50" y="92" width="11" height="11" rx="2" ry="2" fill="#161B22"><title>2025-10-09: 0 contributions</title></rect><rect x="50" y="106" width="11" height="11" rx="2" ry="2" fill="#161B22"><title>2025-10-10: 0 contributions</title></rect><rect x="50" y="120" width="11" height="11" rx="2" ry="2" fill="#161B22"><title>2025-10-11: 0 contributions</title></rect><rect x="64" y="36" width="11" height="11" rx="2" ry="2" fill="#161B22"><title>2025-10-12: 0 contributions</title></rect><rect x="64" y="50" width="11" height="11" rx="2" ry="2" fill="#0E4429"><title>2025-10-13: 1 contributions</title></rect><rect x="64" y="64" width="11" height="11" rx="2" ry="2" fill="#0E4429"><title>2025-10-14: 3 contributions</title></rect><rect x="64" y="78" width="11" height="11" rx="2" ry="2" fill="#0E4429"><title>2025-10-15: 1 contributions</title></rect><rect x="64" y="92" width="11" height="11" rx="2" ry="2" fill="#161B22"><title>2025-10-16: 0 contributions</title></rect><rect x="64" y="106" width="11" height="11" rx="2" ry="2" fill="#0E4429"><title>2025-10-17: 1 contributions</title></rect><rect x="64" y="120" width="11" height="11" rx="2" ry="2" fill="#0E4429"><title>2025-10-18: 1 contributions</title></rect><rect x="78" y="36" width="11" height="11" rx="2" ry="2" fill="#161B22"><title>2025-10-19: 0 contributions</title></rect><rect x="78" y="50" width="11" height="11" rx="2" ry="2" fill="#161B22"><title>2025-10-20: 0 contributions</title></rect><rect x="78" y="64" width="11" height="11" rx="2" ry="2" fill="#0E4429"><title>2025-10-21: 2 contributions</title></rect><rect x="78" y="78" width="11" height="11" rx="2" ry="2" fill="#161B22"><title>2025-10-22: 0 contributions</title></rect><rect x="78" y="92" width="11" height="11" rx="2" ry="2" fill="#0E4429"><title>2025-10-23: 1 contributions</title></rect><rect x="78" y="106" width="11" height="11" rx="2" ry="2" fill="#0E4429"><title>2025-10-24: 2 contributions</title></rect><rect x="78" y="120" width="11" height="11" rx="2" ry="2" fill="#161B22"><title>2025-10-25: 0 contributions</title></rect><rect x="92" y="36" width="11" height="11" rx="2" ry="2" fill="#161B22"><title>2025-10-26: 0 contributions</title></rect><rect x="92" y="50" width="11" height="11" rx="2" ry="2" fill="#0E4429"><title>2025-10-27: 2 contributions</title></rect><rect x="92" y="64" width="11" height="11" rx="2" ry="2" fill="#0E4429"><title>2025-10-28: 3 contributions</title></rect><rect x="92" y="78" width="11" height="11" rx="2" ry="2" fill="#0E4429"><title>2025-10-29: 2 contributions</title></rect><rect x="92" y="92" width="11" height="11" rx="2" ry="2" fill="#0E4429"><title>2025-10-30: 1 contributions</title></rect><rect x="92" y="106" width="11" height="11" rx="2" ry="2" fill="#0E4429"><title>2025-10-31: 2 contributions</title></rect><rect x="92" y="120" width="11" height="11" rx="2" ry="2" fill="#161B22"><title>2025-11-01: 0 contributions</title></rect><rect x="106" y="36" width="11" height="11" rx="2" ry="2" fill="#0E4429"><title>2025-11-02: 1 contributions</title></rect><rect x="106" y="50" width="11" height="11" rx="2" ry="2" fill="#161B22"><title>2025-11-03: 0 contributions</title></rect><rect x="106" y="64" width="11" height="11" rx="2" ry="2" fill="#161B22"><title>2025-11-04: 0 contributions</title></rect><rect x="106" y="78" width="11" height="11" rx="2" ry="2" fill="#0E4429"><title>2025-11-05: 3 contributions</title></rect><rect x="106" y="92" width="11" height="11" rx="2" ry="2" fill="#0E4429"><title>2025-11-06: 2 contributions</title></rect><rect x="106" y="106" width="11" height="11" rx="2" ry="2" fill="#0E4429"><title>2025-11-07: 3 contributions</title></rect><rect x="106" y="120" width="11" height="11" rx="2" ry="2" fill="#26A641"><title>2025-11-08: 8 contributions</title></rect><rect x="120" y="36" width="11" height="11" rx="2" ry="2" fill="#161B22"><title>2025-11-09: 0 contributions</title></rect><rect x="120" y="50" width="11" height="11" rx="2" ry="2" fill="#161B22"><title>2025-11-10: 0 contributions</title></rect><rect x="120" y="64" width="11" height="11" rx="2" ry="2" fill="#0E4429"><title>2025-11-11: 1 contributions</title></rect><rect x="120" y="78" width="11" height="11" rx="2" ry="2" fill="#0E4429"><title>2025-11-12: 1 contributions</title></rect><rect x="120" y="92" width="11" height="11" rx="2" ry="2" fill="#161B22"><title>2025-11-13: 0 contributions</title></rect><rect x="120" y="106" width="11" height="11" rx="2" ry="2" fill="#161B22"><title>2025-11-14: 0 contributions</title></rect><rect x="120" y="120" width="11" height="11" rx="2" ry="2" fill="#161B22"><title>2025-11-15: 0 contributions</title></rect><rect x="134" y="36" width="11" height="11" rx="2" ry="2" fill="#161B22"><title>2025-11-16: 0 contributions</title></rect><rect x="134" y="50" width="11" height="11" rx="2" ry="2" fill="#161B22"><title>2025-11-17: 0 contributions</title></rect><rect x="134" y="64" width="11" height="11" rx="2" ry="2" fill="#161B22"><title>2025-11-18: 0 contributions</title></rect><rect x="134" y="78" width="11" height="11" rx="2" ry="2" fill="#161B22"><title>2025-11-19: 0 contributions</title></rect><rect x="134" y="92" width="11" height="11" rx="2" ry="2" fill="#0E4429"><title>2025-11-20: 2 contributions</title></rect><rect x="134" y="106" width="11" height="11" rx="2" ry="2" fill="#161B22"><title>2025-11-21: 0 contributions</title></rect><rect x="134" y="120" width="11" height="11" rx="2" ry="2" fill="#161B22"><title>2025-11-22: 0 contributions</title></rect><rect x="148" y="36" width="11" height="11" rx="2" ry="2" fill="#161B22"><title>2025-11-23: 0 contributions</title></rect><rect x="148" y="50" width="11" height="11" rx="2" ry="2" fill="#161B22"><title>2025-11-24: 0 contributions</title></rect><rect x="148" y="64" width="11" height="11" rx="2" ry="2" fill="#0E4429"><title>2025-11-25: 2 contributions</title></rect><rect x="148" y="78" width="11" height="11" rx="2" ry="2" fill="#161B22"><title>2025-11-26: 0 contributions</title></rect><rect x="148" y="92" width="11" height="11" rx="2" ry="2" fill="#161B22"><title>2025-11-27: 0 contributions</title></rect><rect x="148" y="106" width="11" height="11" rx="2" ry="2" fill="#0E4429"><title>2025-11-28: 1 contributions</title></rect><rect x="148" y="120" width="11" height="11" rx="2" ry="2" fill="#0E4429"><title>2025-11-29: 1 contributions</title></rect><rect x="162" y="36" width="11" height="11" rx="2" ry="2" fill="#0E4429"><title>2025-11-30: 2 contributions</title></rect><rect x="162" y="50" width="11" height="11" rx="2" ry="2" fill="#161B22"><title>2025-12-01: 0 contributions</title></rect><rect x="162" y="64" width="11" height="11" rx="2" ry="2" fill="#006D32"><title>2025-12-02: 4 contributions</title></rect><rect x="162" y="78" width="11" height="11" rx="2" ry="2" fill="#006D32"><title>2025-12-03: 5 contributions</title></rect><rect x="162" y="92" width="11" height="11" rx="2" ry="2" fill="#161B22"><title>2025-12-04: 0 contributions</title></rect><rect x="162" y="106" width="11" height="11" rx="2" ry="2" fill="#161B22"><title>2025-12-05: 0 contributions</title></rect><rect x="162" y="120" width="11" height="11" rx="2" ry="2" fill="#161B22"><title>2025-12-06: 0 contributions</title></rect><rect x="176" y="36" width="11" height="11" rx="2" ry="2" fill="#161B22"><title>2025-12-07: 0 contributions</title></rect><rect x="176" y="50" width="11" height="11" rx="2" ry="2" fill="#161B22"><title>2025-12-08: 0 contributions</title></rect><rect x="176" y="64" width="11" height="11" rx="2" ry="2" fill="#0E4429"><title>2025-12-09: 1 contributions</title></rect><rect x="176" y="78" width="11" height="11" rx="2" ry="2" fill="#161B22"><title>2025-12-10: 0 contributions</title></rect><rect x="176" y="92" width="11" height="11" rx="2" ry="2" fill="#161B22"><title>2025-12-11: 0 contributions</title></rect><rect x="176" y="106" width="11" height="11" rx="2" ry="2" fill="#161B22"><title>2025-12-12: 0 contributions</title></rect><rect x="176" y="120" width="11" height="11" rx="2" ry="2" fill="#161B22"><title>2025-12-13: 0 contributions</title></rect><rect x="190" y="36" width="11" height="11" rx="2" ry="2" fill="#161B22"><title>2025-12-14: 0 contributions</title></rect><rect x="190" y="50" width="11" height="11" rx="2" ry="2" fill="#161B22"><title>2025-12-15: 0 contributions</title></rect><rect x="190" y="64" width="11" height="11" rx="2" ry="2" fill="#161B22"><title>2025-12-16: 0 contributions</title></rect><rect x="190" y="78" width="11" height="11" rx="2" ry="2" fill="#161B22"><title>2025-12-17: 0 contributions</title></rect><rect x="190" y="92" width="11" height="11" rx="2" ry="2" fill="#161B22"><title>2025-12-18: 0 contributions</title></rect><rect x="190" y="106" width="11" height="11" rx="2" ry="2" fill="#161B22"><title>2025-12-19: 0 contributions</title></rect><rect x="190" y="120" width="11" height="11" rx="2" ry="2" fill="#161B22"><title>2025-12-20: 0 contributions</title></rect><rect x="204" y="36" width="11" height="11" rx="2" ry="2" fill="#161B22"><title>2025-12-21: 0 contributions</title></rect><rect x="204" y="50" width="11" height="11" rx="2" ry="2" fill="#161B22"><title>2025-12-22: 0 contributions</title></rect><rect x="204" y="64" width="11" height="11" rx="2" ry="2" fill="#161B22"><title>2025-12-23: 0 contributions</title></rect><rect x="204" y="78" width="11" height="11" rx="2" ry="2" fill="#161B22"><title>2025-12-24: 0 contributions</title></rect><rect x="204" y="92" width="11" height="11" rx="2" ry="2" fill="#161B22"><title>2025-12-25: 0 contributions</title></rect><rect x="204" y="106" width="11" height="11" rx="2" ry="2" fill="#161B22"><title>2025-12-26: 0 contributions</title></rect><rect x="204" y="120" width="11" height="11" rx="2" ry="2" fill="#161B22"><title>2025-12-27: 0 contributions</title></rect><rect x="218" y="36" width="11" height="11" rx="2" ry="2" fill="#161B22"><title>2025-12-28: 0 contributions</title></rect><rect x="218" y="50" width="11" height="11" rx="2" ry="2" fill="#161B22"><title>2025-12-29: 0 contributions</title></rect><rect x="218" y="64" width="11" height="11" rx="2" ry="2" fill="#161B22"><title>2025-12-30: 0 contributions</title></rect><rect x="218" y="78" width="11" height="11" rx="2" ry="2" fill="#161B22"><title>2025-12-31: 0 contributions</title></rect><rect x="218" y="92" width="11" height="11" rx="2" ry="2" fill="#161B22"><title>2026-01-01: 0 contributions</title></rect><rect x="218" y="106" width="11" height="11" rx="2" ry="2" fill="#161B22"><title>2026-01-02: 0 contributions</title></rect><rect x="218" y="120" width="11" height="11" rx="2" ry="2" fill="#161B22"><title>2026-01-03: 0 contributions</title></rect><rect x="232" y="36" width="11" height="11" rx="2" ry="2" fill="#0E4429"><title>2026-01-04: 1 contributions</title></rect><rect x="232" y="50" width="11" height="11" rx="2" ry="2" fill="#0E4429"><title>2026-01-05: 1 contributions</title></rect><rect x="232" y="64" width="11" height="11" rx="2" ry="2" fill="#0E4429"><title>2026-01-06: 3 contributions</title></rect><rect x="232" y="78" width="11" height="11" rx="2" ry="2" fill="#0E4429"><title>2026-01-07: 3 contributions</title></rect><rect x="232" y="92" width="11" height="11" rx="2" ry="2" fill="#161B22"><title>2026-01-08: 0 contributions</title></rect><rect x="232" y="106" width="11" height="11" rx="2" ry="2" fill="#0E4429"><title>2026-01-09: 3 contributions</title></rect><rect x="232" y="120" width="11" height="11" rx="2" ry="2" fill="#0E4429"><title>2026-01-10: 1 contributions</title></rect><rect x="246" y="36" width="11" height="11" rx="2" ry="2" fill="#161B22"><title>2026-01-11: 0 contributions</title></rect><rect x="246" y="50" width="11" height="11" rx="2" ry="2" fill="#161B22"><title>2026-01-12: 0 contributions</title></rect><rect x="246" y="64" width="11" height="11" rx="2" ry="2" fill="#0E4429"><title>2026-01-13: 2 contributions</title></rect><rect x="246" y="78" width="11" height="11" rx="2" ry="2" fill="#161B22"><title>2026-01-14: 0 contributions</title></rect><rect x="246" y="92" width="11" height="11" rx="2" ry="2" fill="#161B22"><title>2026-01-15: 0 contributions</title></rect><rect x="246" y="106" width="11" height="11" rx="2" ry="2" fill="#161B22"><title>2026-01-16: 0 contributions</title></rect><rect x="246" y="120" width="11" height="11" rx="2" ry="2" fill="#161B22"><title>2026-01-17: 0 contributions</title></rect><rect x="260" y="36" width="11" height="11" rx="2" ry="2" fill="#161B22"><title>2026-01-18: 0 contributions</title></rect><rect x="260" y="50" width="11" height="11" rx="2" ry="2" fill="#161B22"><title>2026-01-19: 0 contributions</title></rect><rect x="260" y="64" width="11" height="11" rx="2" ry="2" fill="#161B22"><title>2026-01-20: 0 contributions</title></rect><rect x="260" y="78" width="11" height="11" rx="2" ry="2" fill="#161B22"><title>2026-01-21: 0 contributions</title></rect><rect x="260" y="92" width="11" height="11" rx="2" ry="2" fill="#161B22"><title>2026-01-22: 0 contributions</title></rect><rect x="260" y="106" width="11" height="11" rx="2" ry="2" fill="#0E4429"><title>2026-01-23: 1 contributions</title></rect><rect x="260" y="120" width="11" height="11" rx="2" ry="2" fill="#161B22"><title>2026-01-24: 0 contributions</title></rect><rect x="274" y="36" width="11" height="11" rx="2" ry="2" fill="#161B22"><title>2026-01-25: 0 contributions</title></rect><rect x="274" y="50" width="11" height="11" rx="2" ry="2" fill="#161B22"><title>2026-01-26: 0 contributions</title></rect><rect x="274" y="64" width="11" height="11" rx="2" ry="2" fill="#161B22"><title>2026-01-27: 0 contributions</title></rect><rect x="274" y="78" width="11" height="11" rx="2" ry="2" fill="#161B22"><title>2026-01-28: 0 contributions</title></rect><rect x="274" y="92" width="11" height="11" rx="2" ry="2" fill="#161B22"><title>2026-01-29: 0 contributions</title></rect><rect x="274" y="106" width="11" height="11" rx="2" ry="2" fill="#161B22"><title>2026-01-30: 0 contributions</title></rect><rect x="274" y="120" width="11" height="11" rx="2" ry="2" fill="#161B22"><title>2026-01-31: 0 contributions</title></rect><rect x="288" y="36" width="11" height="11" rx="2" ry="2" fill="#161B22"><title>2026-02-01: 0 contributions</title></rect><rect x="288" y="50" width="11" height="11" rx="2" ry="2" fill="#161B22"><title>2026-02-02: 0 contributions</title></rect><rect x="288" y="64" width="11" height="11" rx="2" ry="2" fill="#161B22"><title>2026-02-03: 0 contributions</title></rect><rect x="288" y="78" width="11" height="11" rx="2" ry="2" fill="#161B22"><title>2026-02-04: 0 contributions</title></rect><rect x="288" y="92" width="11" height="11" rx="2" ry="2" fill="#0E4429"><title>2026-02-05: 1 contributions</title></rect><rect x="288" y="106" width="11" height="11" rx="2" ry="2" fill="#26A641"><title>2026-02-06: 8 contributions</title></rect><rect x="288" y="120" width="11" height="11" rx="2" ry="2" fill="#26A641"><title>2026-02-07: 9 contributions</title></rect><rect x="302" y="36" width="11" height="11" rx="2" ry="2" fill="#0E4429"><title>2026-02-08: 2 contributions</title></rect><rect x="302" y="50" width="11" height="11" rx="2" ry="2" fill="#006D32"><title>2026-02-09: 5 contributions</title></rect><rect x="302" y="64" width="11" height="11" rx="2" ry="2" fill="#161B22"><title>2026-02-10: 0 contributions</title></rect><rect x="302" y="78" width="11" height="11" rx="2" ry="2" fill="#0E4429"><title>2026-02-11: 1 contributions</title></rect><rect x="302" y="92" width="11" height="11" rx="2" ry="2" fill="#006D32"><title>2026-02-12: 4 contributions</title></rect><rect x="302" y="106" width="11" height="11" rx="2" ry="2" fill="#006D32"><title>2026-02-13: 7 contributions</title></rect><rect x="302" y="120" width="11" height="11" rx="2" ry="2" fill="#161B22"><title>2026-02-14: 0 contributions</title></rect><rect x="316" y="36" width="11" height="11" rx="2" ry="2" fill="#006D32"><title>2026-02-15: 5 contributions</title></rect><rect x="316" y="50" width="11" height="11" rx="2" ry="2" fill="#26A641"><title>2026-02-16: 8 contributions</title></rect><rect x="316" y="64" width="11" height="11" rx="2" ry="2" fill="#0E4429"><title>2026-02-17: 1 contributions</title></rect><rect x="316" y="78" width="11" height="11" rx="2" ry="2" fill="#26A641"><title>2026-02-18: 8 contributions</title></rect><rect x="316" y="92" width="11" height="11" rx="2" ry="2" fill="#0E4429"><title>2026-02-19: 1 contributions</title></rect><rect x="316" y="106" width="11" height="11" rx="2" ry="2" fill="#39D353"><title>2026-02-20: 11 contributions</title></rect><rect x="316" y="120" width="11" height="11" rx="2" ry="2" fill="#006D32"><title>2026-02-21: 4 contributions</title></rect><rect x="330" y="36" width="11" height="11" rx="2" ry="2" fill="#0E4429"><title>2026-02-22: 3 contributions</title></rect><rect x="330" y="50" width="11" height="11" rx="2" ry="2" fill="#006D32"><title>2026-02-23: 5 contributions</title></rect><rect x="330" y="64" width="11" height="11" rx="2" ry="2" fill="#0E4429"><title>2026-02-24: 2 contributions</title></rect><rect x="330" y="78" width="11" height="11" rx="2" ry="2" fill="#0E4429"><title>2026-02-25: 3 contributions</title></rect><rect x="330" y="92" width="11" height="11" rx="2" ry="2" fill="#006D32"><title>2026-02-26: 7 contributions</title></rect><rect x="330" y="106" width="11" height="11" rx="2" ry="2" fill="#0E4429"><title>2026-02-27: 1 contributions</title></rect><rect x="330" y="120" width="11" height="11" rx="2" ry="2" fill="#006D32"><title>2026-02-28: 5 contributions</title></rect><rect x="344" y="36" width="11" height="11" rx="2" ry="2" fill="#0E4429"><title>2026-03-01: 2 contributions</title></rect><rect x="344" y="50" width="11" height="11" rx="2" ry="2" fill="#0E4429"><title>2026-03-02: 2 contributions</title></rect><rect x="344" y="64" width="11" height="11" rx="2" ry="2" fill="#161B22"><title>2026-03-03: 0 contributions</title></rect><rect x="344" y="78" width="11" height="11" rx="2" ry="2" fill="#161B22"><title>2026-03-04: 0 contributions</title></rect><rect x="344" y="92" width="11" height="11" rx="2" ry="2" fill="#161B22"><title>2026-03-05: 0 contributions</title></rect><rect x="344" y="106" width="11" height="11" rx="2" ry="2" fill="#161B22"><title>2026-03-06: 0 contributions</title></rect><rect x="344" y="120" width="11" height="11" rx="2" ry="2" fill="#161B22"><title>2026-03-07: 0 contributions</title></rect><rect x="358" y="36" width="11" height="11" rx="2" ry="2" fill="#0E4429"><title>2026-03-08: 2 contributions</title></rect><rect x="358" y="50" width="11" height="11" rx="2" ry="2" fill="#161B22"><title>2026-03-09: 0 contributions</title></rect><rect x="358" y="64" width="11" height="11" rx="2" ry="2" fill="#161B22"><title>2026-03-10: 0 contributions</title></rect><rect x="358" y="78" width="11" height="11" rx="2" ry="2" fill="#161B22"><title>2026-03-11: 0 contributions</title></rect><rect x="358" y="92" width="11" height="11" rx="2" ry="2" fill="#161B22"><title>2026-03-12: 0 contributions</title></rect><rect x="358" y="106" width="11" height="11" rx="2" ry="2" fill="#161B22"><title>2026-03-13: 0 contributions</title></rect><rect x="358" y="120" width="11" height="11" rx="2" ry="2" fill="#161B22"><title>2026-03-14: 0 contributions</title></rect><rect x="372" y="36" width="11" height="11" rx="2" ry="2" fill="#161B22"><title>2026-03-15: 0 contributions</title></rect><rect x="372" y="50" width="11" height="11" rx="2" ry="2" fill="#161B22"><title>2026-03-16: 0 contributions</title></rect><rect x="372" y="64" width="11" height="11" rx="2" ry="2" fill="#161B22"><title>2026-03-17: 0 contributions</title></rect><rect x="372" y="78" width="11" height="11" rx="2" ry="2" fill="#161B22"><title>2026-03-18: 0 contributions</title></rect><rect x="372" y="92" width="11" height="11" rx="2" ry="2" fill="#161B22"><title>2026-03-19: 0 contributions</title></rect><rect x="372" y="106" width="11" height="11" rx="2" ry="2" fill="#161B22"><title>2026-03-20: 0 contributions</title></rect><rect x="372" y="120" width="11" height="11" rx="2" ry="2" fill="#161B22"><title>2026-03-21: 0 contributions</title></rect><rect x="386" y="36" width="11" height="11" rx="2" ry="2" fill="#161B22"><title>2026-03-22: 0 contributions</title></rect><rect x="386" y="50" width="11" height="11" rx="2" ry="2" fill="#161B22"><title>2026-03-23: 0 contributions</title></rect><rect x="386" y="64" width="11" height="11" rx="2" ry="2" fill="#161B22"><title>2026-03-24: 0 contributions</title></rect><rect x="386" y="78" width="11" height="11" rx="2" ry="2" fill="#161B22"><title>2026-03-25: 0 contributions</title></rect><rect x="386" y="92" width="11" height="11" rx="2" ry="2" fill="#161B22"><title>2026-03-26: 0 contributions</title></rect><rect x="386" y="106" width="11" height="11" rx="2" ry="2" fill="#161B22"><title>2026-03-27: 0 contributions</title></rect><rect x="386" y="120" width="11" height="11" rx="2" ry="2" fill="#161B22"><title>2026-03-28: 0 contributions</title></rect><rect x="400" y="36" width="11" height="11" rx="2" ry="2" fill="#161B22"><title>2026-03-29: 0 contributions</title></rect><rect x="400" y="50" width="11" height="11" rx="2" ry="2" fill="#161B22"><title>2026-03-30: 0 contributions</title></rect><rect x="400" y="64" width="11" height="11" rx="2" ry="2" fill="#161B22"><title>2026-03-31: 0 contributions</title></rect><rect x="400" y="78" width="11" height="11" rx="2" ry="2" fill="#161B22"><title>2026-04-01: 0 contributions</title></rect><rect x="400" y="92" width="11" height="11" rx="2" ry="2" fill="#161B22"><title>2026-04-02: 0 contributions</title></rect><rect x="400" y="106" width="11" height="11" rx="2" ry="2" fill="#161B22"><title>2026-04-03: 0 contributions</title></rect><rect x="400" y="120" width="11" height="11" rx="2" ry="2" fill="#161B22"><title>2026-04-04: 0 contributions</title></rect><rect x="414" y="36" width="11" height="11" rx="2" ry="2" fill="#161B22"><title>2026-04-05: 0 contributions</title></rect><rect x="414" y="50" width="11" height="11" rx="2" ry="2" fill="#161B22"><title>2026-04-06: 0 contributions</title></rect><rect x="414" y="64" width="11" height="11" rx="2" ry="2" fill="#161B22"><title>2026-04-07: 0 contributions</title></rect><rect x="414" y="78" width="11" height="11" rx="2" ry="2" fill="#161B22"><title>2026-04-08: 0 contributions</title></rect><rect x="414" y="92" width="11" height="11" rx="2" ry="2" fill="#161B22"><title>2026-04-09: 0 contributions</title></rect><rect x="414" y="106" width="11" height="11" rx="2" ry="2" fill="#161B22"><title>2026-04-10: 0 contributions</title></rect><rect x="414" y="120" width="11" height="11" rx="2" ry="2" fill="#161B22"><title>2026-04-11: 0 contributions</title></rect><rect x="428" y="36" width="11" height="11" rx="2" ry="2" fill="#161B22"><title>2026-04-12: 0 contributions</title></rect><rect x="428" y="50" width="11" height="11" rx="2" ry="2" fill="#0E4429"><title>2026-04-13: 2 contributions</title></rect><rect x="428" y="64" width="11" height="11" rx="2" ry="2" fill="#161B22"><title>2026-04-14: 0 contributions</title></rect><rect x="428" y="78" width="11" height="11" rx="2" ry="2" fill="#161B22"><title>2026-04-15: 0 contributions</title></rect><rect x="428" y="92" width="11" height="11" rx="2" ry="2" fill="#161B22"><title>2026-04-16: 0 contributions</title></rect><rect x="428" y="106" width="11" height="11" rx="2" ry="2" fill="#161B22"><title>2026-04-17: 0 contributions</title></rect><rect x="428" y="120" width="11" height="11" rx="2" ry="2" fill="#161B22"><title>2026-04-18: 0 contributions</title></rect><rect x="442" y="36" width="11" height="11" rx="2" ry="2" fill="#161B22"><title>2026-04-19: 0 contributions</title></rect><rect x="442" y="50" width="11" height="11" rx="2" ry="2" fill="#161B22"><title>2026-04-20: 0 contributions</title></rect><rect x="442" y="64" width="11" height="11" rx="2" ry="2" fill="#161B22"><title>2026-04-21: 0 contributions</title></rect><rect x="442" y="78" width="11" height="11" rx="2" ry="2" fill="#161B22"><title>2026-04-22: 0 contributions</title></rect><rect x="442" y="92" width="11" height="11" rx="2" ry="2" fill="#161B22"><title>2026-04-23: 0 contributions</title></rect><rect x="442" y="106" width="11" height="11" rx="2" ry="2" fill="#161B22"><title>2026-04-24: 0 contributions</title></rect><rect x="442" y="120" width="11" height="11" rx="2" ry="2" fill="#161B22"><title>2026-04-25: 0 contributions</title></rect><rect x="456" y="36" width="11" height="11" rx="2" ry="2" fill="#161B22"><title>2026-04-26: 0 contributions</title></rect><rect x="456" y="50" width="11" height="11" rx="2" ry="2" fill="#0E4429"><title>2026-04-27: 2 contributions</title></rect><rect x="456" y="64" width="11" height="11" rx="2" ry="2" fill="#0E4429"><title>2026-04-28: 1 contributions</title></rect><rect x="456" y="78" width="11" height="11" rx="2" ry="2" fill="#161B22"><title>2026-04-29: 0 contributions</title></rect><rect x="456" y="92" width="11" height="11" rx="2" ry="2" fill="#161B22"><title>2026-04-30: 0 contributions</title></rect><rect x="456" y="106" width="11" height="11" rx="2" ry="2" fill="#161B22"><title>2026-05-01: 0 contributions</title></rect><rect x="456" y="120" width="11" height="11" rx="2" ry="2" fill="#161B22"><title>2026-05-02: 0 contributions</title></rect><rect x="470" y="36" width="11" height="11" rx="2" ry="2" fill="#161B22"><title>2026-05-03: 0 contributions</title></rect><rect x="470" y="50" width="11" height="11" rx="2" ry="2" fill="#161B22"><title>2026-05-04: 0 contributions</title></rect><rect x="470" y="64" width="11" height="11" rx="2" ry="2" fill="#161B22"><title>2026-05-05: 0 contributions</title></rect><rect x="470" y="78" width="11" height="11" rx="2" ry="2" fill="#161B22"><title>2026-05-06: 0 contributions</title></rect><rect x="470" y="92" width="11" height="11" rx="2" ry="2" fill="#161B22"><title>2026-05-07: 0 contributions</title></rect><rect x="470" y="106" width="11" height="11" rx="2" ry="2" fill="#161B22"><title>2026-05-08: 0 contributions</title></rect><rect x="470" y="120" width="11" height="11" rx="2" ry="2" fill="#161B22"><title>2026-05-09: 0 contributions</title></rect><rect x="484" y="36" width="11" height="11" rx="2" ry="2" fill="#161B22"><title>2026-05-10: 0 contributions</title></rect><rect x="484" y="50" width="11" height="11" rx="2" ry="2" fill="#161B22"><title>2026-05-11: 0 contributions</title></rect><rect x="484" y="64" width="11" height="11" rx="2" ry="2" fill="#161B22"><title>2026-05-12: 0 contributions</title></rect><rect x="484" y="78" width="11" height="11" rx="2" ry="2" fill="#161B22"><title>2026-05-13: 0 contributions</title></rect><rect x="484" y="92" width="11" height="11" rx="2" ry="2" fill="#161B22"><title>2026-05-14: 0 contributions</title></rect><rect x="484" y="106" width="11" height="11" rx="2" ry="2" fill="#161B22"><title>2026-05-15: 0 contributions</title></rect><rect x="484" y="120" width="11" height="11" rx="2" ry="2" fill="#161B22"><title>2026-05-16: 0 contributions</title></rect><rect x="498" y="36" width="11" height="11" rx="2" ry="2" fill="#161B22"><title>2026-05-17: 0 contributions</title></rect><rect x="498" y="50" width="11" height="11" rx="2" ry="2" fill="#161B22"><title>2026-05-18: 0 contributions</title></rect><rect x="498" y="64" width="11" height="11" rx="2" ry="2" fill="#161B22"><title>2026-05-19: 0 contributions</title></rect><rect x="498" y="78" width="11" height="11" rx="2" ry="2" fill="#161B22"><title>2026-05-20: 0 contributions</title></rect><rect x="498" y="92" width="11" height="11" rx="2" ry="2" fill="#161B22"><title>2026-05-21: 0 contributions</title></rect><rect x="498" y="106" width="11" height="11" rx="2" ry="2" fill="#161B22"><title>2026-05-22: 0 contributions</title></rect><rect x="498" y="120" width="11" height="11" rx="2" ry="2" fill="#161B22"><title>2026-05-23: 0 contributions</title></rect><rect x="512" y="36" width="11" height="11" rx="2" ry="2" fill="#161B22"><title>2026-05-24: 0 contributions</title></rect><rect x="512" y="50" width="11" height="11" rx="2" ry="2" fill="#161B22"><title>2026-05-25: 0 contributions</title></rect><rect x="512" y="64" width="11" height="11" rx="2" ry="2" fill="#161B22"><title>2026-05-26: 0 contributions</title></rect><rect x="512" y="78" width="11" height="11" rx="2" ry="2" fill="#161B22"><title>2026-05-27: 0 contributions</title></rect><rect x="512" y="92" width="11" height="11" rx="2" ry="2" fill="#161B22"><title>2026-05-28: 0 contributions</title></rect><rect x="512" y="106" width="11" height="11" rx="2" ry="2" fill="#161B22"><title>2026-05-29: 0 contributions</title></rect><rect x="512" y="120" width="11" height="11" rx="2" ry="2" fill="#161B22"><title>2026-05-30: 0 contributions</title></rect><rect x="526" y="36" width="11" height="11" rx="2" ry="2" fill="#161B22"><title>2026-05-31: 0 contributions</title></rect><rect x="526" y="50" width="11" height="11" rx="2" ry="2" fill="#161B22"><title>2026-06-01: 0 contributions</title></rect><rect x="526" y="64" width="11" height="11" rx="2" ry="2" fill="#161B22"><title>2026-06-02: 0 contributions</title></rect><rect x="526" y="78" width="11" height="11" rx="2" ry="2" fill="#161B22"><title>2026-06-03: 0 contributions</title></rect><rect x="526" y="92" width="11" height="11" rx="2" ry="2" fill="#161B22"><title>2026-06-04: 0 contributions</title></rect><rect x="526" y="106" width="11" height="11" rx="2" ry="2" fill="#161B22"><title>2026-06-05: 0 contributions</title></rect><rect x="526" y="120" width="11" height="11" rx="2" ry="2" fill="#161B22"><title>2026-06-06: 0 contributions</title></rect><rect x="540" y="36" width="11" height="11" rx="2" ry="2" fill="#161B22"><title>2026-06-07: 0 contributions</title></rect><rect x="540" y="50" width="11" height="11" rx="2" ry="2" fill="#161B22"><title>2026-06-08: 0 contributions</title></rect><rect x="540" y="64" width="11" height="11" rx="2" ry="2" fill="#161B22"><title>2026-06-09: 0 contributions</title></rect><rect x="540" y="78" width="11" height="11" rx="2" ry="2" fill="#161B22"><title>2026-06-10: 0 contributions</title></rect><rect x="540" y="92" width="11" height="11" rx="2" ry="2" fill="#161B22"><title>2026-06-11: 0 contributions</title></rect><rect x="540" y="106" width="11" height="11" rx="2" ry="2" fill="#161B22"><title>2026-06-12: 0 contributions</title></rect><rect x="540" y="120" width="11" height="11" rx="2" ry="2" fill="#161B22"><title>2026-06-13: 0 contributions</title></rect><rect x="554" y="36" width="11" height="11" rx="2" ry="2" fill="#161B22"><title>2026-06-14: 0 contributions</title></rect><rect x="554" y="50" width="11" height="11" rx="2" ry="2" fill="#161B22"><title>2026-06-15: 0 contributions</title></rect><rect x="554" y="64" width="11" height="11" rx="2" ry="2" fill="#0E4429"><title>2026-06-16: 1 contributions</title></rect><rect x="554" y="78" width="11" height="11" rx="2" ry="2" fill="#0E4429"><title>2026-06-17: 1 contributions</title></rect><rect x="554" y="92" width="11" height="11" rx="2" ry="2" fill="#161B22"><title>2026-06-18: 0 contributions</title></rect><rect x="554" y="106" width="11" height="11" rx="2" ry="2" fill="#161B22"><title>2026-06-19: 0 contributions</title></rect><rect x="554" y="120" width="11" height="11" rx="2" ry="2" fill="#161B22"><title>2026-06-20: 0 contributions</title></rect><rect x="568" y="36" width="11" height="11" rx="2" ry="2" fill="#161B22"><title>2026-06-21: 0 contributions</title></rect><rect x="568" y="50" width="11" height="11" rx="2" ry="2" fill="#161B22"><title>2026-06-22: 0 contributions</title></rect><rect x="568" y="64" width="11" height="11" rx="2" ry="2" fill="#161B22"><title>2026-06-23: 0 contributions</title></rect><rect x="568" y="78" width="11" height="11" rx="2" ry="2" fill="#161B22"><title>2026-06-24: 0 contributions</title></rect><rect x="568" y="92" width="11" height="11" rx="2" ry="2" fill="#161B22"><title>2026-06-25: 0 contributions</title></rect><rect x="568" y="106" width="11" height="11" rx="2" ry="2" fill="#161B22"><title>2026-06-26: 0 contributions</title></rect><rect x="568" y="120" width="11" height="11" rx="2" ry="2" fill="#161B22"><title>2026-06-27: 0 contributions</title></rect><rect x="582" y="36" width="11" height="11" rx="2" ry="2" fill="#161B22"><title>2026-06-28: 0 contributions</title></rect><rect x="582" y="50" width="11" height="11" rx="2" ry="2" fill="#161B22"><title>2026-06-29: 0 contributions</title></rect><rect x="582" y="64" width="11" height="11" rx="2" ry="2" fill="#161B22"><title>2026-06-30: 0 contributions</title></rect><rect x="582" y="78" width="11" height="11" rx="2" ry="2" fill="#161B22"><title>2026-07-01: 0 contributions</title></rect><rect x="582" y="92" width="11" height="11" rx="2" ry="2" fill="#161B22"><title>2026-07-02: 0 contributions</title></rect><rect x="582" y="106" width="11" height="11" rx="2" ry="2" fill="#161B22"><title>2026-07-03: 0 contributions</title></rect><rect x="582" y="120" width="11" height="11" rx="2" ry="2" fill="#161B22"><title>2026-07-04: 0 contributions</title></rect><rect x="596" y="36" width="11" height="11" rx="2" ry="2" fill="#161B22"><title>2026-07-05: 0 contributions</title></rect><rect x="596" y="50" width="11" height="11" rx="2" ry="2" fill="#161B22"><title>2026-07-06: 0 contributions</title></rect><rect x="596" y="64" width="11" height="11" rx="2" ry="2" fill="#161B22"><title>2026-07-07: 0 contributions</title></rect><rect x="596" y="78" width="11" height="11" rx="2" ry="2" fill="#161B22"><title>2026-07-08: 0 contributions</title></rect><rect x="596" y="92" width="11" height="11" rx="2" ry="2" fill="#161B22"><title>2026-07-09: 0 contributions</title></rect><rect x="596" y="106" width="11" height="11" rx="2" ry="2" fill="#161B22"><title>2026-07-10: 0 contributions</title></rect><rect x="596" y="120" width="11" height="11" rx="2" ry="2" fill="#161B22"><title>2026-07-11: 0 contributions</title></rect><rect x="610" y="36" width="11" height="11" rx="2" ry="2" fill="#161B22"><title>2026-07-12: 0 contributions</title></rect><rect x="610" y="50" width="11" height="11" rx="2" ry="2" fill="#161B22"><title>2026-07-13: 0 contributions</title></rect><rect x="610" y="64" width="11" height="11" rx="2" ry="2" fill="#161B22"><title>2026-07-14: 0 contributions</title></rect><rect x="610" y="78" width="11" height="11" rx="2" ry="2" fill="#006D32"><title>2026-07-15: 5 contributions</title></rect><rect x="610" y="92" width="11" height="11" rx="2" ry="2" fill="#006D32"><title>2026-07-16: 4 contributions</title></rect><rect x="610" y="106" width="11" height="11" rx="2" ry="2" fill="#0E4429"><title>2026-07-17: 1 contributions</title></rect><rect x="610" y="120" width="11" height="11" rx="2" ry="2" fill="#161B22"><title>2026-07-18: 0 contributions</title></rect><rect x="624" y="36" width="11" height="11" rx="2" ry="2" fill="#161B22"><title>2026-07-19: 0 contributions</title></rect><rect x="624" y="50" width="11" height="11" rx="2" ry="2" fill="#161B22"><title>2026-07-20: 0 contributions</title></rect><rect x="624" y="64" width="11" height="11" rx="2" ry="2" fill="#161B22"><title>2026-07-21: 0 contributions</title></rect><rect x="624" y="78" width="11" height="11" rx="2" ry="2" fill="#161B22"><title>2026-07-22: 0 contributions</title></rect><rect x="624" y="92" width="11" height="11" rx="2" ry="2" fill="#161B22"><title>2026-07-23: 0 contributions</title></rect><rect x="624" y="106" width="11" height="11" rx="2" ry="2" fill="#161B22"><title>2026-07-24: 0 contributions</title></rect><rect x="624" y="120" width="11" height="11" rx="2" ry="2" fill="#161B22"><title>2026-07-25: 0 contributions</title></rect><rect x="638" y="36" width="11" height="11" rx="2" ry="2" fill="#161B22"><title>2026-07-26: 0 contributions</title></rect><rect x="638" y="50" width="11" height="11" rx="2" ry="2" fill="#161B22"><title>2026-07-27: 0 contributions</title></rect><rect x="638" y="64" width="11" height="11" rx="2" ry="2" fill="#161B22"><title>2026-07-28: 0 contributions</title></rect><rect x="638" y="78" width="11" height="11" rx="2" ry="2" fill="#161B22"><title>2026-07-29: 0 contributions</title></rect><rect x="638" y="92" width="11" height="11" rx="2" ry="2" fill="#161B22"><title>2026-07-30: 0 contributions</title></rect><rect x="638" y="106" width="11" height="11" rx="2" ry="2" fill="#161B22"><title>2026-07-31: 0 contributions</title></rect><rect x="638" y="120" width="11" height="11" rx="2" ry="2" fill="#006D32"><title>2026-08-01: 5 contributions</title></rect><rect x="652" y="36" width="11" height="11" rx="2" ry="2" fill="#161B22"><title>2026-08-02: 0 contributions</title></rect><rect x="652" y="50" width="11" height="11" rx="2" ry="2" fill="#161B22"><title>2026-08-03: 0 contributions</title></rect><rect x="652" y="64" width="11" height="11" rx="2" ry="2" fill="#161B22"><title>2026-08-04: 0 contributions</title></rect><rect x="652" y="78" width="11" height="11" rx="2" ry="2" fill="#161B22"><title>2026-08-05: 0 contributions</title></rect><rect x="652" y="92" width="11" height="11" rx="2" ry="2" fill="#161B22"><title>2026-08-06: 0 contributions</title></rect><rect x="652" y="106" width="11" height="11" rx="2" ry="2" fill="#161B22"><title>2026-08-07: 0 contributions</title></rect><rect x="652" y="120" width="11" height="11" rx="2" ry="2" fill="#161B22"><title>2026-08-08: 0 contributions</title></rect><rect x="666" y="36" width="11" height="11" rx="2" ry="2" fill="#161B22"><title>2026-08-09: 0 contributions</title></rect><rect x="666" y="50" width="11" height="11" rx="2" ry="2" fill="#161B22"><title>2026-08-10: 0 contributions</title></rect><rect x="666" y="64" width="11" height="11" rx="2" ry="2" fill="#161B22"><title>2026-08-11: 0 contributions</title></rect><rect x="666" y="78" width="11" height="11" rx="2" ry="2" fill="#161B22"><title>2026-08-12: 0 contributions</title></rect><rect x="666" y="92" width="11" height="11" rx="2" ry="2" fill="#161B22"><title>2026-08-13: 0 contributions</title></rect><rect x="666" y="106" width="11" height="11" rx="2" ry="2" fill="#161B22"><title>2026-08-14: 0 contributions</title></rect><rect x="666" y="120" width="11" height="11" rx="2" ry="2" fill="#161B22"><title>2026-08-15: 0 contributions</title></rect><rect x="680" y="36" width="11" height="11" rx="2" ry="2" fill="#161B22"><title>2026-08-16: 0 contributions</title></rect><rect x="680" y="50" width="11" height="11" rx="2" ry="2" fill="#161B22"><title>2026-08-17: 0 contributions</title></rect><rect x="680" y="64" width="11" height="11" rx="2" ry="2" fill="#161B22"><title>2026-08-18: 0 contributions</title></rect><rect x="680" y="78" width="11" height="11" rx="2" ry="2" fill="#161B22"><title>2026-08-19: 0 contributions</title></rect><rect x="680" y="92" width="11" height="11" rx="2" ry="2" fill="#161B22"><title>2026-08-20: 0 contributions</title></rect><rect x="680" y="106" width="11" height="11" rx="2" ry="2" fill="#161B22"><title>2026-08-21: 0 contributions</title></rect><rect x="680" y="120" width="11" height="11" rx="2" ry="2" fill="#161B22"><title>2026-08-22: 0 contributions</title></rect><rect x="694" y="36" width="11" height="11" rx="2" ry="2" fill="#006D32"><title>2026-08-23: 4 contributions</title></rect><rect x="694" y="50" width="11" height="11" rx="2" ry="2" fill="#161B22"><title>2026-08-24: 0 contributions</title></rect><rect x="694" y="64" width="11" height="11" rx="2" ry="2" fill="#161B22"><title>2026-08-25: 0 contributions</title></rect><rect x="694" y="78" width="11" height="11" rx="2" ry="2" fill="#161B22"><title>2026-08-26: 0 contributions</title></rect><rect x="694" y="92" width="11" height="11" rx="2" ry="2" fill="#161B22"><title>2026-08-27: 0 contributions</title></rect><rect x="694" y="106" width="11" height="11" rx="2" ry="2" fill="#161B22"><title>2026-08-28: 0 contributions</title></rect><rect x="694" y="120" width="11" height="11" rx="2" ry="2" fill="#161B22"><title>2026-08-29: 0 contributions</title></rect><rect x="708" y="36" width="11" height="11" rx="2" ry="2" fill="#0E4429"><title>2026-08-30: 3 contributions</title></rect><rect x="708" y="50" width="11" height="11" rx="2" ry="2" fill="#0E4429"><title>2026-08-31: 1 contributions</title></rect><rect x="708" y="64" width="11" height="11" rx="2" ry="2" fill="#161B22"><title>2026-09-01: 0 contributions</title></rect><rect x="708" y="78" width="11" height="11" rx="2" ry="2" fill="#006D32"><title>2026-09-02: 4 contributions</title></rect><rect x="708" y="92" width="11" height="11" rx="2" ry="2" fill="#006D32"><title>2026-09-03: 4 contributions</title></rect><rect x="708" y="106" width="11" height="11" rx="2" ry="2" fill="#006D32"><title>2026-09-04: 6 contributions</title></rect><rect x="708" y="120" width="11" height="11" rx="2" ry="2" fill="#39D353"><title>2026-09-05: 14 contributions</title></rect><rect x="722" y="36" width="11" height="11" rx="2" ry="2" fill="#006D32"><title>2026-09-06: 4 contributions</title></rect><rect x="722" y="50" width="11" height="11" rx="2" ry="2" fill="#26A641"><title>2026-09-07: 9 contributions</title></rect><rect x="722" y="64" width="11" height="11" rx="2" ry="2" fill="#006D32"><title>2026-09-08: 7 contributions</title></rect><rect x="722" y="78" width="11" height="11" rx="2" ry="2" fill="#006D32"><title>2026-09-09: 6 contributions</title></rect><rect x="722" y="92" width="11" height="11" rx="2" ry="2" fill="#0E4429"><title>2026-09-10: 1 contributions</title></rect><rect x="722" y="106" width="11" height="11" rx="2" ry="2" fill="#006D32"><title>2026-09-11: 4 contributions</title></rect><rect x="722" y="120" width="11" height="11" rx="2" ry="2" fill="#006D32"><title>2026-09-12: 4 contributions</title></rect><rect x="736" y="36" width="11" height="11" rx="2" ry="2" fill="#006D32"><title>2026-09-13: 5 contributions</title></rect><rect x="736" y="50" width="11" height="11" rx="2" ry="2" fill="#006D32"><title>2026-09-14: 7 contributions</title></rect><rect x="736" y="64" width="11" height="11" rx="2" ry="2" fill="#006D32"><title>2026-09-15: 6 contributions</title></rect><rect x="736" y="78" width="11" height="11" rx="2" ry="2" fill="#0E4429"><title>2026-09-16: 2 contributions</title></rect><rect x="736" y="92" width="11" height="11" rx="2" ry="2" fill="#006D32"><title>2026-09-17: 4 contributions</title></rect><rect x="736" y="106" width="11" height="11" rx="2" ry="2" fill="#0E4429"><title>2026-09-18: 3 contributions</title></rect><rect x="736" y="120" width="11" height="11" rx="2" ry="2" fill="#006D32"><title>2026-09-19: 7 contributions</title></rect><rect x="750" y="36" width="11" height="11" rx="2" ry="2" fill="#006D32"><title>2026-09-20: 5 contributions</title></rect><rect x="750" y="50" width="11" height="11" rx="2" ry="2" fill="#0E4429"><title>2026-09-21: 2 contributions</title></rect><rect x="750" y="64" width="11" height="11" rx="2" ry="2" fill="#006D32"><title>2026-09-22: 5 contributions</title></rect><rect x="750" y="78" width="11" height="11" rx="2" ry="2" fill="#0E4429"><title>2026-09-23: 3 contributions</title></rect><rect x="750" y="92" width="11" height="11" rx="2" ry="2" fill="#0E4429"><title>2026-09-24: 2 contributions</title></rect><rect x="750" y="106" width="11" height="11" rx="2" ry="2" fill="#0E4429"><title>2026-09-25: 1 contributions</title></rect><rect x="750" y="120" width="11" height="11" rx="2" ry="2" fill="#0E4429"><title>2026-09-26: 1 contributions</title></rect><rect x="764" y="36" width="11" height="11" rx="2" ry="2" fill="#0E4429"><title>2026-09-27: 1 contributions</title></rect><rect x="764" y="50" width="11" height="11" rx="2" ry="2" fill="#0E4429"><title>2026-09-28: 2 contributions</title></rect><rect x="764" y="64" width="11" height="11" rx="2" ry="2" fill="#0E4429"><title>2026-09-29: 2 contributions</title></rect>
</svg>
